<?xml version="1.0" encoding="UTF-8"?>
<svg width="960px" height="689px" viewBox="0 0 960 689" version="1.1" xmlns="http://www.w3.org/2000/svg" xmlns:xlink="http://www.w3.org/1999/xlink">
    <!-- Generator: Sketch 57.1 (83088) - https://sketch.com -->
    <title>roller1</title>
    <desc>Created with Sketch.</desc>
    <g id="roller1" stroke="none" stroke-width="1" fill="none" fill-rule="evenodd">
        <path d="M949.085595,0 C955.665739,0 961,5.33074046 961,11.9065421 L961,91.2524201 C961,103.155788 951.347807,112.809137 939.436576,112.809137 C935.054142,112.809137 931.078074,111.070422 928.161432,108.245639 L928.161566,647.316223 L934.115718,647.316223 C940.695862,647.316223 946.030123,652.646963 946.030123,659.222765 L946.030123,677.093458 C946.030123,683.66926 940.695862,689 934.115718,689 L926.174138,689 C923.736879,689 921.470516,688.26865 919.582837,687.013551 L39.3377525,687.013551 C37.4500935,688.26864 35.1837405,689 32.7464458,689 L24.8048663,689 C19.7416619,689 15.4159776,685.843736 13.690748,681.392449 C12.5542861,679.568463 11.8977641,677.414815 11.8977641,675.107825 L11.8977641,659.222765 C11.8977641,652.646963 17.2320248,647.316223 23.8121689,647.316223 L29.766308,647.316223 L29.7658593,109.196934 C27.1781669,111.295461 23.9264886,112.614466 20.3623769,112.789535 C20.2648065,112.794327 20.1671807,112.797921 20.0695218,112.800314 L19.8554848,112.805559 C19.7581494,112.807944 19.6607884,112.809137 19.5634238,112.809137 C7.65219278,112.809137 -2,103.155788 -2,91.2524201 L-2,11.9065421 C-2,5.33074046 3.3342607,0 9.91440475,0 L949.085595,0 Z M31,661 L28,661 L28,672 L31,672 L31,661 Z M925,661 L36,661 L36,672 L925,672 L925,661 Z M932,661 L929,661 L929,672 L932,672 L932,661 Z M914,95 L45,95 L45,656 L914,656 L914,95 Z M947,14 L13,14 L13,90.8766404 C13,94.8107633 16.1858598,98 20.115817,98 C21.0855525,98 21.8716784,97.2130408 21.8716784,96.2422773 L21.871853,92.7933326 C19.8195748,89.2383157 19.0770471,82.3101475 19.0770471,71.5360133 C19.0770471,60.7618791 19.8195748,53.8337109 21.871853,50.278694 L21.8716784,42.1973754 L938.128322,42.1973754 L938.128119,56.1220753 L940.933384,56.1237896 L941.276636,56.2228059 C944.927836,57.2760509 946.058414,62.2099889 946.058414,71.5360133 C946.058414,80.8620376 944.927836,85.7959757 941.276636,86.8492206 L940.933257,86.9482736 L938.128119,86.9481262 L938.128322,96.2422773 C938.128322,97.2130408 938.914448,98 939.884183,98 C943.81414,98 947,94.8107633 947,90.8766404 L947,14 Z M30,86 L30.0508277,86.3529637 C30.2838122,87.9141857 30.5604286,89.1202164 30.8597955,89.9494679 L30.8785252,90 L30.8964164,89.541805 C30.9332605,88.5635749 30.9677881,87.6043668 31,86.6641891 C30.6358072,86.5052054 30.3035716,86.2830221 30,86 Z M930.619528,53 L42.9419853,53 C41.0330226,56.5151834 40,62.7127682 40,71.5 C40,74.4444511 40.1159882,77.0981345 40.3420548,79.4575613 L49.4366867,78.6030277 L49.4487948,78.7341656 L49.4565907,78.8207539 L40.3610231,79.6522345 C40.8152563,84.2372308 41.6903359,87.6952009 42.9419842,90 L930.619529,90 C931.004718,89.2907087 931.354244,88.4722037 931.666815,87.5452471 L930.231594,87.5447642 L930.874863,84.4693779 C931.58868,81.0567132 931.951398,76.7284096 931.951398,71.5 C931.951398,66.7754487 931.655289,62.7848212 931.070746,59.5389619 L930.529547,56.5337771 L932,56.5333899 C931.609169,55.1514048 931.147902,53.9729526 930.619528,53 Z M938.784,70.9558191 C938.784,75.1216617 938.527539,78.8006304 938,82 L939.517387,81.9988436 C939.748484,81.6384753 939.984741,81.0666531 940.19301,80.296577 C940.721985,78.3406874 941,75.392688 941,71.500451 C941,67.6082139 940.721985,64.6602146 940.19301,62.704325 C939.984725,61.9341881 939.748446,61.3623366 939.517332,61.0019731 L938.16641,61 C938.581554,63.9376778 938.784,67.2545835 938.784,70.9558191 Z M30.844235,54 L30.7662429,54.183438 C30.5051243,54.8227169 30.2636063,55.6703341 30.0546919,56.7162462 L30,57 C30.3057114,56.7870586 30.6384386,56.6169571 31,56.4890743 C30.9522962,55.6796665 30.9002498,54.8495377 30.844235,54 Z M933,48 L27,48 L27,48.2757379 L31.6801483,48.2752714 C34.1472942,48.2752714 36.1901285,50.2251627 36.3467886,52.7303969 C36.4386625,54.1995996 36.5218264,55.6227851 36.5962753,57 L37.6326736,56.9989493 C38.3753991,53.8246884 39.4226408,51.276987 40.7927693,49.3448758 L41.5506406,48.2761501 L933,48.2757379 L933,48 Z M108,16 L108,41 L28,41 L28,16 L108,16 Z M106,18 L30,18 L30,39 L106,39 L106,18 Z M20,31 C21.6568542,31 23,32.3431458 23,34 C23,35.6568542 21.6568542,37 20,37 C18.3431458,37 17,35.6568542 17,34 C17,32.3431458 18.3431458,31 20,31 Z M20,33 C19.4477153,33 19,33.4477153 19,34 C19,34.5522847 19.4477153,35 20,35 C20.5522847,35 21,34.5522847 21,34 C21,33.4477153 20.5522847,33 20,33 Z M20,26 C21.1045695,26 22,26.8954305 22,28 C22,29.1045695 21.1045695,30 20,30 C18.8954305,30 18,29.1045695 18,28 C18,26.8954305 18.8954305,26 20,26 Z M19.5,27.3832 C19.4354931,27.3832 19.3832,27.4354931 19.3832,27.5 C19.3832,27.5645069 19.4354931,27.6168 19.5,27.6168 C19.5645069,27.6168 19.6168,27.5645069 19.6168,27.5 C19.6168,27.4354931 19.5645069,27.3832 19.5,27.3832 Z M20,19 C21.6568542,19 23,20.3431458 23,22 C23,23.6568542 21.6568542,25 20,25 C18.3431458,25 17,23.6568542 17,22 C17,20.3431458 18.3431458,19 20,19 Z M20,21 C19.4477153,21 19,21.4477153 19,22 C19,22.5522847 19.4477153,23 20,23 C20.5522847,23 21,22.5522847 21,22 C21,21.4477153 20.5522847,21 20,21 Z" id="Shape" fill="#000000" fill-rule="nonzero"></path>
    </g>
</svg>